<?xml version="1.0" encoding="UTF-8" standalone="no"?>
<!-- Created with Inkscape (http://www.inkscape.org/) -->

<svg
   width="500"
   height="500"
   viewBox="0 0 132.29166 132.29167"
   version="1.1"
   id="svg1"
   xml:space="preserve"
   xmlns="http://www.w3.org/2000/svg"
   xmlns:svg="http://www.w3.org/2000/svg"><defs
     id="defs1" /><g
     id="layer1"><path
       style="display:inline;mix-blend-mode:normal;fill:#000000;stroke-width:1.6111"
       d="m 61.153495,124.15137 c -0.271067,-0.0847 -1.008027,-0.16237 -1.637705,-0.17254 -0.629665,-0.009 -1.516796,-0.0956 -1.971427,-0.18968 -0.454619,-0.0941 -1.536286,-0.31337 -2.403713,-0.48712 -0.867427,-0.17377 -2.065077,-0.43856 -2.661439,-0.58842 -0.596359,-0.14984 -1.394791,-0.33837 -1.774293,-0.41886 -0.667799,-0.14161 -1.314341,-0.32782 -4.238593,-1.22044 -2.2842,-0.69725 -6.928701,-2.74779 -10.054341,-4.43899 -0.650574,-0.35202 -1.471185,-0.78252 -1.823582,-0.95667 -0.352393,-0.17416 -0.640716,-0.38465 -0.640716,-0.46774 0,-0.0832 -0.09709,-0.15112 -0.215747,-0.15112 -0.455376,0 -5.834398,-3.84208 -6.881435,-4.9152 -0.271072,-0.27784 -1.27031,-1.12792 -2.220525,-1.88908 -1.353811,-1.08448 -4.193287,-3.93849 -5.313994,-5.34123 -0.08149,-0.10203 -0.351319,-0.43575 -0.599643,-0.74171 -0.248323,-0.30596 -0.57736,-0.78963 -0.731192,-1.07483 -0.153828,-0.2852 -0.569494,-0.83698 -0.92369,-1.226197 C 15.667996,98.340372 11.299855,91.02484 10.685068,89.192709 10.54819,88.784787 10.375525,88.367557 10.301388,88.265576 10.126382,88.024835 9.4064436,85.81616 9.0019016,84.278896 8.8274519,83.615993 8.4651359,82.280924 8.1967512,81.312057 6.6542681,75.743728 6.0839903,68.720513 6.7136865,63.047425 c 0.6479194,-5.837238 0.6646906,-5.932196 1.7031854,-9.642234 0.39966,-1.427789 0.7976067,-2.88804 0.8843287,-3.244979 0.5036707,-2.073131 2.7639764,-6.885 4.3115524,-9.178673 2.43437,-3.607991 4.729112,-6.79344 5.629227,-7.814201 0.552313,-0.626331 1.440106,-1.646092 1.972872,-2.266107 1.514285,-1.762268 6.126034,-5.893255 8.492259,-7.606965 2.680579,-1.941374 6.43522,-4.210656 9.267745,-5.601356 2.778407,-1.364118 7.87591,-3.267535 10.645771,-3.975145 3.982959,-1.017505 6.404834,-1.468646 10.360251,-1.929903 2.155233,-0.251332 9.470599,-0.254183 12.302107,-0.0048 4.30559,0.379222 10.8842,1.735622 14.094488,2.906085 6.321065,2.304629 8.781425,3.464732 13.15691,6.203698 1.864167,1.166918 4.504427,2.982111 4.793367,3.295438 0.0542,0.05881 0.44027,0.346612 0.8579,0.639574 2.27219,1.59399 8.64626,8.076569 10.14012,10.312725 0.37473,0.56092 1.05781,1.562234 1.51795,2.225137 2.37929,3.427629 4.31234,6.770789 5.41441,9.364094 0.34672,0.815876 0.79641,1.858919 0.99931,2.317856 0.20289,0.458922 0.4738,1.168192 0.60202,1.576122 0.12825,0.407946 0.31049,0.93339 0.40505,1.16766 0.0945,0.234254 0.17193,0.659875 0.17193,0.945812 0,0.285937 0.0791,0.761808 0.17588,1.057493 0.0967,0.295669 0.28041,1.03824 0.40817,1.650152 0.12776,0.611912 0.32556,1.446348 0.43956,1.854278 0.3079,1.101911 0.51515,2.750984 0.84557,6.728036 0.26365,3.17335 0.26417,4.03938 0.005,7.695254 -0.26108,3.677269 -0.79227,7.231997 -1.48844,9.960458 -0.11712,0.458938 -0.283,1.209919 -0.3687,1.668841 -0.15289,0.818696 -0.98767,3.260032 -1.49008,4.35754 -0.14,0.305962 -0.36957,0.848338 -0.51002,1.205272 -0.5671,1.441214 -3.12856,6.079609 -4.39177,7.952761 -0.45131,0.669237 -0.90926,1.350484 -1.01769,1.513894 -4.16564,6.277958 -10.44295,12.186798 -17.997884,16.941478 -1.880479,1.18346 -2.204434,1.3537 -5.46217,2.87027 -5.115129,2.38122 -7.619197,3.30135 -11.13856,4.09291 -0.37951,0.0854 -1.177934,0.27781 -1.774293,0.42769 -1.029745,0.25877 -3.230798,0.71581 -4.731419,0.98247 -2.571187,0.45685 -13.685757,0.79912 -14.78571,0.45528 z m 12.761185,-7.62438 c 0.260172,-0.093 0.85325,-0.16917 1.317933,-0.16917 0.46469,0 1.1021,-0.073 1.416454,-0.16233 0.314357,-0.0892 1.059485,-0.26131 1.65585,-0.38228 0.596359,-0.121 1.439137,-0.32917 1.872855,-0.46265 0.433709,-0.13355 1.187778,-0.34645 1.675711,-0.47327 0.487922,-0.1268 1.064562,-0.29905 1.281431,-0.38272 0.216854,-0.0836 0.970924,-0.32995 1.675711,-0.5473 0.704787,-0.21738 1.458856,-0.46734 1.67571,-0.55549 0.216855,-0.0881 0.970924,-0.39324 1.675711,-0.67799 0.704786,-0.28477 1.31099,-0.58266 1.347143,-0.66199 0.03608,-0.0794 0.147899,-0.14419 0.248302,-0.14419 0.365704,0 5.819272,-2.96431 6.09224,-3.31147 0.05461,-0.0696 0.323235,-0.21865 0.596731,-0.33129 0.694539,-0.28605 5.746018,-4.37579 7.884618,-6.38346 1.54478,-1.45022 1.75032,-1.71637 1.57014,-2.033047 -0.11406,-0.2004 -0.29174,-0.36438 -0.39488,-0.36438 -0.27233,0 -3.34717,-2.449255 -3.34717,-2.666152 0,-0.0532 0.50925,-0.1218 1.13166,-0.15225 0.88265,-0.0434 1.14579,-0.1255 1.19589,-0.373149 0.0592,-0.291859 -2.68334,-4.274813 -3.53611,-5.135781 -0.20273,-0.204659 -0.36859,-0.418174 -0.36859,-0.474471 0,-0.09762 -0.782727,-1.177124 -2.020891,-2.787259 -0.891461,-1.15926 -1.101162,-1.195448 -1.911137,-0.329729 -0.385439,0.41199 -1.005112,1.238801 -1.377045,1.837381 -0.371939,0.59857 -1.00371,1.50553 -1.403939,2.015461 -1.221526,1.556313 -3.172879,4.761243 -3.06297,5.030657 0.07411,0.18172 0.498066,0.25399 1.489822,0.25399 0.976981,0 1.386469,0.0685 1.387194,0.231787 5.48e-4,0.12743 -0.953132,1.112124 -2.119288,2.188098 -1.166158,1.075984 -2.550775,2.465054 -3.076923,3.086844 -0.526152,0.62177 -1.305774,1.45115 -1.732486,1.84306 l -0.775851,0.7126 -3.241839,-3.12716 c -1.782994,-1.719947 -3.193824,-3.200211 -3.135147,-3.289478 0.05864,-0.0892 0.766781,-0.16233 1.573599,-0.16233 1.740799,0 1.781672,-0.0821 0.752217,-1.511131 -0.393103,-0.545674 -0.957729,-1.409332 -1.254714,-1.919263 -1.199861,-2.060067 -1.451386,-2.448062 -2.163697,-3.337674 -0.408296,-0.509931 -1.063686,-1.406933 -1.45644,-1.993342 -1.013054,-1.512554 -1.203389,-1.46728 -2.620695,0.623478 -0.526277,0.776352 -1.287613,1.880738 -1.69187,2.454195 -0.404236,0.573446 -1.014392,1.565378 -1.355891,2.204275 -0.341505,0.638891 -0.991626,1.703991 -1.444716,2.366898 -1.07411,1.571481 -1.162077,1.809431 -0.744919,2.014958 0.315034,0.15515 1.614215,0.0465 3.146945,-0.263047 0.86631,-0.17502 0.815147,0.0601 -0.246417,1.132314 -0.487938,0.492817 -0.887147,0.960077 -0.887147,1.038357 0,0.0784 -0.163768,0.29163 -0.363916,0.47408 -0.200163,0.18243 -0.830774,0.83236 -1.40134,1.44428 -1.994676,2.13915 -2.814398,2.8688 -3.067674,2.7306 -0.135655,-0.0741 -1.106788,-1.09421 -2.157993,-2.26704 -1.051189,-1.17281 -2.402166,-2.65852 -3.002151,-3.30156 -0.599989,-0.643034 -1.033789,-1.222851 -0.963996,-1.288501 0.06976,-0.0655 0.524537,-0.0194 1.010524,0.10296 1.054149,0.265177 2.779675,0.292987 2.941059,0.0474 0.06316,-0.0962 -0.216999,-0.659437 -0.622669,-1.251634 -0.405691,-0.592187 -1.074486,-1.692378 -1.486229,-2.444858 -0.411733,-0.752476 -1.30439,-2.129274 -1.98364,-3.059542 -0.679266,-0.930268 -1.357008,-1.918576 -1.506062,-2.196247 -0.506223,-0.942911 -1.302504,-1.699913 -1.654492,-1.572881 -0.181394,0.06542 -0.780159,0.768364 -1.33057,1.56196 -0.55041,0.7936 -1.11987,1.568072 -1.26546,1.721048 -0.145643,0.152884 -0.593481,0.86223 -0.995305,1.576122 -0.401832,0.713891 -0.971223,1.631741 -1.265315,2.039691 -0.907141,1.258313 -1.679021,2.661824 -1.537233,2.795194 0.07427,0.0699 0.721473,0.11504 1.438231,0.10039 0.716759,-0.0144 1.377023,0.0163 1.467254,0.0688 0.207861,0.12083 -0.224203,1.020084 -0.488726,1.017204 -0.108426,-0.001 -1.462645,1.230224 -3.009371,2.736494 l -2.812227,2.73866 -1.278507,-1.2503 c -0.703181,-0.68766 -1.27851,-1.32311 -1.27851,-1.4121 0,-0.0889 -1.197648,-1.27826 -2.661442,-2.642804 -1.463794,-1.364534 -2.661444,-2.543958 -2.661444,-2.620918 0,-0.077 0.660126,-0.139997 1.466946,-0.139997 0.806819,0 1.522963,-0.0852 1.59143,-0.18945 0.06847,-0.10424 -0.148093,-0.606099 -0.481226,-1.115343 -0.33314,-0.509233 -0.605709,-0.975674 -0.605709,-1.036514 0,-0.06091 -0.56291,-0.875304 -1.25091,-1.809913 -0.688,-0.934626 -1.759073,-2.489859 -2.380164,-3.456059 -0.621089,-0.966223 -1.259953,-1.852243 -1.419695,-1.968939 -0.474344,-0.346505 -0.92969,-0.101211 -1.704011,0.918345 -0.402155,0.529466 -1.198181,1.577157 -1.768948,2.328198 -0.570764,0.751023 -1.772673,2.366173 -2.670909,3.589206 -1.877162,2.555909 -1.881565,2.734749 -0.06771,2.749499 l 1.109439,0.009 -1.575766,1.383461 c -0.866676,0.760917 -1.731645,1.430011 -1.922157,1.486881 -0.702808,0.2098 -0.395247,0.964217 0.885762,2.172647 3.649163,3.44246 6.348603,5.54316 9.469577,7.36923 0.952422,0.55724 2.194429,1.28363 2.760016,1.61418 1.2922,0.75518 4.373466,2.16584 6.055507,2.77231 0.70479,0.25412 1.458865,0.52787 1.675722,0.60835 0.37651,0.13969 1.494401,0.46292 4.534309,1.31095 2.607709,0.72746 5.066182,1.11618 8.181421,1.29359 3.030088,0.17258 12.113233,0.0266 12.761185,-0.20519 z M 24.607479,90.110426 c 1.396306,-1.381998 3.603166,-3.488897 4.904127,-4.682028 3.898184,-3.575061 13.66201,-12.846339 14.734055,-13.990767 1.634611,-1.744997 2.98468,-1.806541 4.703277,-0.214372 0.680931,0.630825 1.024412,0.82543 1.307687,0.740864 0.211301,-0.06316 1.041792,-0.746777 1.845533,-1.519315 6.491058,-6.239078 12.375353,-11.643371 13.008156,-11.947015 0.906674,-0.435077 1.961568,-0.467572 2.748746,-0.08474 0.316012,0.153699 3.788782,3.282792 7.717282,6.953542 3.92848,3.670728 7.217906,6.674075 7.309802,6.674075 0.09183,0 0.602917,-0.383442 1.135595,-0.852094 1.757232,-1.546011 3.088812,-1.504074 4.731736,0.149026 2.948716,2.966936 22.526675,21.285512 22.748865,21.285512 0.14065,0 0.39665,-0.146454 0.56882,-0.32536 0.69982,-0.727325 3.88235,-7.312082 3.89093,-8.050481 0.002,-0.135654 0.14372,-0.621996 0.31599,-1.080933 1.6258,-4.332648 2.85097,-12.18558 2.56568,-16.445117 -0.33837,-5.051994 -0.6368,-6.990677 -1.59321,-10.34919 -0.4066,-1.427788 -0.81023,-2.888024 -0.89695,-3.244979 -0.98493,-4.053702 -3.25202,-8.543915 -6.41307,-12.701791 -0.38766,-0.50993 -0.85342,-1.135745 -1.03496,-1.390717 -0.18158,-0.254956 -0.37689,-0.505289 -0.43405,-0.556281 -0.0572,-0.05091 -0.62641,-0.718534 -1.26499,-1.483419 C 103.94047,33.082789 96.090945,26.915357 91.809184,24.897085 88.105287,23.151186 83.874581,21.48916 81.7549,20.94725 81.104343,20.780936 79.951047,20.486235 79.192059,20.292371 74.905045,19.197403 71.392004,18.77536 66.574922,18.7766 c -4.189429,0.0011 -6.047209,0.177962 -10.547141,1.004118 -4.900005,0.899606 -13.086057,3.96738 -17.141603,6.423919 -1.66269,1.00713 -4.767171,3.131702 -5.727069,3.919352 -4.130889,3.38964 -5.376959,4.527672 -6.316746,5.769039 -0.263666,0.348288 -0.613663,0.767303 -0.777771,0.931151 -1.667231,1.664653 -4.918831,6.068446 -6.252584,8.468179 -1.712702,3.081548 -3.833844,9.231468 -4.620881,13.397528 -0.485124,2.567931 -0.599424,3.920915 -0.697084,8.25154 -0.09913,4.395561 0.05107,6.98616 0.526775,9.085954 0.09241,0.407929 0.275324,1.367516 0.406458,2.132417 0.329758,1.923444 1.193531,4.944077 1.77631,6.211819 0.09377,0.203964 0.357511,0.954946 0.586099,1.668847 0.495688,1.548055 0.502007,1.562596 1.65197,3.801245 1.054009,2.051856 1.627272,2.772841 2.208666,2.777825 0.283538,0.0021 1.236797,-0.806415 2.957158,-2.509148 z M 64.166167,52.280805 c -2.88751,-0.595351 -5.815357,-2.638191 -7.291356,-5.0874 -1.035142,-1.717657 -1.438448,-3.171883 -1.438448,-5.186595 0,-2.898802 1.064157,-5.266312 3.336695,-7.423429 1.077386,-1.02266 1.562343,-1.328995 2.8733,-1.815032 2.058105,-0.763032 3.029556,-0.955414 4.852359,-0.960907 2.042978,-0.0065 3.292084,0.244935 4.991403,1.003393 2.543588,1.135309 4.301524,2.978905 5.449025,5.714502 0.504596,1.202944 0.56433,1.571403 0.570404,3.518206 0.0065,1.881667 -0.06042,2.343698 -0.492057,3.430416 -1.389144,3.497278 -4.683323,6.142847 -8.505265,6.830658 -1.768799,0.318304 -2.711787,0.313148 -4.34606,-0.02384 z M 51.93138,87.013988 c 1.603931,-1.555267 2.98217,-2.88138 3.062756,-2.946919 0.886777,-0.721193 7.301281,-6.819476 8.041593,-7.645181 2.594337,-2.893534 4.326146,-2.898657 7.095884,-0.02095 2.744268,2.851259 14.072534,13.440789 14.378413,13.440789 0.31083,0 3.476346,-2.726419 4.413469,-3.801234 0.266749,-0.305969 1.136062,-1.147421 1.931778,-1.869918 0.795717,-0.722497 1.446774,-1.408181 1.446774,-1.523713 0,-0.249543 -4.396923,-4.931041 -5.310073,-5.653749 -0.814405,-0.644552 -1.030224,-0.632034 -1.732727,0.100535 -0.835238,0.870944 -1.295314,1.066209 -2.512301,1.066209 H 81.66362 l -5.080056,-4.791006 c -2.79405,-2.635032 -5.575647,-5.284339 -6.181334,-5.887326 -1.546806,-1.539888 -2.967066,-2.779999 -3.448506,-3.011079 -0.619849,-0.297522 -1.223818,0.136299 -4.223085,3.033264 -1.463791,1.413869 -4.583053,4.379902 -6.931682,6.591183 -3.613465,3.402126 -4.371535,4.031067 -4.928589,4.089098 -1.207302,0.125827 -1.719932,-0.04108 -2.716653,-0.883913 -0.71298,-0.602937 -1.095681,-0.804728 -1.370562,-0.722658 -0.502446,0.149993 -5.935431,5.692898 -5.935431,6.055525 0,0.348367 7.410234,7.208823 7.786525,7.208823 0.232288,0 1.518645,-1.10323 3.297133,-2.827751 z M -39.784086,-30.12993 c 0,-0.370399 0.131433,-0.370856 106.457575,-0.370856 106.326131,0 106.457561,4.57e-4 106.457561,0.370856 0,0.370398 -0.13146,0.370855 -106.457561,0.370855 -106.326146,0 -106.457575,-4.57e-4 -106.457575,-0.370855 z"
       id="path1" /></g></svg>
